<svg width="44" height="44" viewBox="0 0 44 44" fill="none" xmlns="http://www.w3.org/2000/svg">
<circle cx="22" cy="22" r="22" fill="#FFBA97"/>
<mask id="mask0" mask-type="alpha" maskUnits="userSpaceOnUse" x="0" y="0" width="44" height="44">
<circle cx="22" cy="22" r="22" fill="#00B3FF"/>
</mask>
<g mask="url(#mask0)">
<path fill-rule="evenodd" clip-rule="evenodd" d="M21.5885 6.133C16.6942 6.133 12.7266 10.1006 12.7266 14.9949C12.7266 19.8892 16.6942 23.8568 21.5885 23.8568C26.4827 23.8568 30.4503 19.8892 30.4503 14.9949C30.4503 10.1006 26.4827 6.133 21.5885 6.133ZM13 25.0384C10.2386 25.0384 8 27.277 8 30.0384V48.3964C8 51.1579 10.2386 53.3964 13 53.3964H30.1765C32.9379 53.3964 35.1765 51.1578 35.1765 48.3964V30.0384C35.1765 27.277 32.9379 25.0384 30.1765 25.0384H13Z" fill="white"/>
</g>
</svg>
