<svg width="90" height="100" viewBox="0 0 90 100" fill="none" xmlns="http://www.w3.org/2000/svg">
<path d="M84 22L85.3471 26.1459H89.7063L86.1796 28.7082L87.5267 32.8541L84 30.2918L80.4733 32.8541L81.8204 28.7082L78.2937 26.1459H82.6529L84 22Z" fill="#FFD748"/>
<path d="M55 0L57.0206 6.21885H63.5595L58.2694 10.0623L60.2901 16.2812L55 12.4377L49.7099 16.2812L51.7306 10.0623L46.4405 6.21885H52.9794L55 0Z" fill="#FFD748"/>
<path d="M74.7267 62.9576C74.7267 83.4157 58.1405 100 37.683 100C32.6644 100 27.8803 99.0021 23.5167 97.1935C11.5901 92.253 2.80524 81.2617 0.98909 68.0488C0.75824 66.3847 0.640625 64.6849 0.640625 62.9576C0.640625 42.4982 17.2249 25.9139 37.683 25.9139C58.1405 25.9139 74.7267 42.4982 74.7267 62.9576Z" fill="#937DE2"/>
<path d="M37.6828 25.9139C35.724 25.9139 33.8015 26.0672 31.9253 26.36C49.6495 29.1258 63.2121 44.4564 63.2121 62.9576C63.2121 81.4563 49.6507 96.7862 31.9278 99.5533C33.8034 99.8461 35.7246 100 37.6822 100C58.1403 100 74.7264 83.4157 74.7264 62.9576C74.7264 42.4982 58.1403 25.9139 37.6828 25.9139Z" fill="#7570D6"/>
<path d="M79.3512 60.2193L58.1987 74.2261C56.6916 75.2246 54.866 75.6206 53.0818 75.3353C51.2932 75.0507 49.4633 75.441 47.9524 76.4414L45.1215 78.3176L29.2686 54.9492L33.158 38.1465C33.4601 36.8384 33.6097 35.5127 33.6097 34.192C33.6097 30.7756 32.6106 27.4035 30.6943 24.5088C30.2232 23.7969 29.998 22.9917 29.998 22.1966C29.998 20.8377 30.6574 19.5046 31.8761 18.6975C33.5183 17.6096 35.6948 17.8117 37.1087 19.183L39.6287 21.6235C42.5102 24.4194 44.733 27.8233 46.1288 31.5882L47.4951 35.2668L61.5657 25.9703C63.8129 24.4826 66.8527 25.1332 68.2879 27.4348C69.6717 29.652 68.961 32.5817 66.7808 34.025C66.7545 34.0425 66.7526 34.0707 66.7614 34.0919C66.7739 34.1151 66.8002 34.1307 66.8296 34.1182C67.3858 33.9042 67.9676 33.8004 68.5444 33.8004C69.4653 33.8004 70.378 34.0657 71.1588 34.5705C71.6968 34.9184 72.1735 35.3807 72.5495 35.9487C73.2759 37.0461 73.4923 38.3329 73.2546 39.5291C72.8817 41.4135 71.5123 42.3844 71.2433 42.5671C71.1976 42.599 71.1851 42.6622 71.217 42.7097C71.217 42.711 71.2189 42.7128 71.2201 42.7128C71.2501 42.7554 71.3115 42.7673 71.3553 42.7397C71.7388 42.6465 72.1291 42.6021 72.5195 42.6021C73.4723 42.6021 74.4201 42.873 75.2259 43.3866C75.7708 43.7351 76.2525 44.1955 76.6254 44.7598C78.0881 46.9682 77.4837 49.9449 75.2728 51.4082C75.2184 51.4451 75.164 51.482 75.1095 51.5171C75.0783 51.5421 75.0689 51.5821 75.0851 51.6103C75.0883 51.6172 75.0958 51.6247 75.1027 51.6278C75.1271 51.6472 75.1658 51.6491 75.1978 51.6247C76.571 51.1567 78.0656 51.3694 79.268 52.1483C79.8216 52.5037 80.3127 52.9822 80.7012 53.5691C82.1646 55.7793 81.5596 58.756 79.3512 60.2193Z" fill="#FDD7BD"/>
<path d="M45.3238 82.7526L36.4001 88.6621L23.5169 97.1935C11.5902 92.2525 2.80541 81.263 0.989258 68.0488L15.9401 58.1479L25.0415 52.1202C26.0894 51.4258 27.5033 51.7142 28.1977 52.7639L45.9675 79.5945C46.6619 80.6443 46.3735 82.0556 45.3238 82.7526Z" fill="#87DBFF"/>
<path d="M45.3236 82.7526L36.3999 88.6621L15.9399 58.1479L25.0413 52.1202C26.0892 51.4258 27.5031 51.7142 28.1975 52.7639L45.9674 79.5939C46.6618 80.6443 46.3734 82.0556 45.3236 82.7526Z" fill="#6FC7FF"/>
<path d="M71.159 34.5699L64.1202 38.3367C63.1218 38.8697 61.8837 38.5913 61.2124 37.6823L66.7616 34.0919C66.7741 34.1151 66.8004 34.1307 66.8298 34.1182C67.3859 33.9043 67.9677 33.8004 68.5446 33.8004C69.4661 33.8004 70.3782 34.0657 71.159 34.5699Z" fill="#FAC5AA"/>
<path d="M75.2261 43.3866L68.3406 47.0683C67.3421 47.6032 66.104 47.3255 65.4321 46.4165L70.9813 42.8255L71.2209 42.7128C71.2509 42.7554 71.3122 42.7673 71.356 42.7397C71.7395 42.6465 72.1299 42.6021 72.5203 42.6021C73.4731 42.6021 74.4209 42.873 75.2261 43.3866Z" fill="#FAC5AA"/>
<path d="M79.269 52.1483L73.2044 55.3927C72.2071 55.9251 70.9697 55.6474 70.2959 54.7383L75.1031 51.6278C75.1281 51.6472 75.1669 51.6491 75.1982 51.6241C76.5714 51.1567 78.066 51.3694 79.269 52.1483Z" fill="#FAC5AA"/>
<path d="M13 20L14.3471 24.1459H18.7063L15.1796 26.7082L16.5267 30.8541L13 28.2918L9.47329 30.8541L10.8204 26.7082L7.29366 24.1459H11.6529L13 20Z" fill="#FFD748"/>
</svg>
